#N canvas 0 0 1916 997 10;
#X declare -lib mrpeach;
#X obj -71 117 unpackOSC;
#X obj -71 91 udpreceive 12346;
#X obj -72 57 import mrpeach;
#X obj 765 335 *~;
#X floatatom 765 250 0 0 0 0 - - -;
#X floatatom 679 298 0 0 0 0 - - -;
#X obj 675 355 +~;
#X msg 751 501 bang;
#X text 793 501 <-- click to graph;
#X obj 751 525 tabwrite~ fm-output;
#X floatatom 787 305 0 0 0 0 - - -;
#X text 672 242 carrier;
#X text 671 260 frequency;
#X text 750 226 frequency;
#X text 751 209 modulation;
#X obj 674 398 osc~;
#X text 826 317 index;
#X text 828 298 modulation;
#X obj 765 275 osc~;
#X obj 659 525 output~;
#X obj 674 450 *~;
#X obj 935 308 trigger b b;
#X obj 911 479 vline~;
#X obj 916 401 readsf~ 2;
#X obj 904 440 dac~;
#X obj 713 45 loadbang;
#X obj 734 114 t b b b;
#X msg 1014 374 1 200 \, 0.2 5000 300 \, 0 50 50;
#X obj 707 154 f -85;
#X obj 757 161 f 1000;
#X obj 823 161 f 100;
#X obj 1050 336 bng 15 250 50 0 empty empty empty 17 7 0 10 -262144
-1 -1;
#X obj 373 329 dac~;
#X obj 373 166 trigger b b;
#X obj 411 45 loadbang;
#X msg 411 76 \; pd dsp 1;
#X obj 373 298 readsf~ 2;
#X msg 373 264 1;
#X obj 911 259 routeOSC /puredata/playSound/5;
#X obj 373 134 routeOSC /puredata/playSound/0;
#X obj 397 648 dac~;
#X obj 397 485 trigger b b;
#X obj 435 364 loadbang;
#X msg 435 395 \; pd dsp 1;
#X obj 397 617 readsf~ 2;
#X msg 397 583 1;
#X obj 402 968 dac~;
#X obj 402 805 trigger b b;
#X obj 440 684 loadbang;
#X msg 440 715 \; pd dsp 1;
#X obj 402 937 readsf~ 2;
#X msg 402 903 1;
#X obj 438 1009 loadbang;
#X obj 404 1611 dac~;
#X obj 404 1448 trigger b b;
#X obj 442 1327 loadbang;
#X msg 442 1358 \; pd dsp 1;
#X obj 404 1580 readsf~ 2;
#X msg 404 1546 1;
#X obj 404 1416 routeOSC /puredata/playSound/4;
#X obj 400 1098 routeOSC /puredata/playSound/3;
#X obj 402 773 routeOSC /puredata/playSound/2;
#X obj 397 453 routeOSC /puredata/playSound/1;
#X obj 400 1262 readsf~ 2;
#X msg 400 1228 1;
#X msg 438 1040 \; pd dsp 1;
#X obj 400 1130 trigger b b;
#X obj 400 1293 dac~;
#X obj 1317 333 *~;
#X floatatom 1317 248 0 0 0 0 - - -;
#X floatatom 1231 296 0 0 0 0 - - -;
#X obj 1227 353 +~;
#X msg 1303 499 bang;
#X text 1345 499 <-- click to graph;
#X obj 1303 523 tabwrite~ fm-output;
#X floatatom 1339 303 0 0 0 0 - - -;
#X text 1224 240 carrier;
#X text 1223 258 frequency;
#X text 1302 224 frequency;
#X text 1303 207 modulation;
#X obj 1226 396 osc~;
#X text 1378 315 index;
#X text 1380 296 modulation;
#X obj 1317 273 osc~;
#X obj 1226 541 output~;
#X obj 1226 448 *~;
#X obj 1489 302 trigger b b;
#X obj 1463 477 vline~;
#X obj 1468 399 readsf~ 2;
#X obj 1456 438 dac~;
#X obj 1265 43 loadbang;
#X obj 1286 112 t b b b;
#X msg 1566 372 1 200 \, 0.2 5000 300 \, 0 50 600;
#X obj 1259 152 f 165;
#X obj 1309 159 f 18;
#X obj 1375 159 f 288;
#X obj 1584 336 bng 15 250 50 0 empty empty empty 17 7 0 10 -262144
-1 -1;
#X obj 1463 257 routeOSC /puredata/playSound/8;
#X msg 467 1520 open f4m.wav;
#X msg 460 557 open g5.wav;
#X msg 436 238 open a5m.wav;
#X msg 465 877 open c5m.wav;
#X msg 463 1202 open d6.wav;
#X obj 651 978 dac~;
#X obj 651 815 trigger b b;
#X obj 689 694 loadbang;
#X msg 689 725 \; pd dsp 1;
#X obj 651 947 readsf~ 2;
#X msg 651 913 1;
#X obj 651 783 routeOSC /puredata/playSound/6;
#X msg 714 887 open e7.wav;
#X obj 630 1298 dac~;
#X obj 630 1135 trigger b b;
#X obj 668 1014 loadbang;
#X msg 668 1045 \; pd dsp 1;
#X obj 630 1267 readsf~ 2;
#X msg 630 1233 1;
#X obj 630 1103 routeOSC /puredata/playSound/7;
#X msg 693 1207 open c8.wav;
#X connect 0 0 38 0;
#X connect 0 0 39 0;
#X connect 0 0 62 0;
#X connect 0 0 61 0;
#X connect 0 0 60 0;
#X connect 0 0 59 0;
#X connect 0 0 97 0;
#X connect 0 0 109 0;
#X connect 0 0 117 0;
#X connect 1 0 0 0;
#X connect 3 0 6 1;
#X connect 4 0 18 0;
#X connect 5 0 6 0;
#X connect 6 0 15 0;
#X connect 7 0 9 0;
#X connect 10 0 3 1;
#X connect 15 0 20 0;
#X connect 18 0 3 0;
#X connect 20 0 19 0;
#X connect 20 0 19 1;
#X connect 21 0 31 0;
#X connect 22 0 20 1;
#X connect 23 0 24 0;
#X connect 23 1 24 1;
#X connect 25 0 26 0;
#X connect 26 0 28 0;
#X connect 26 1 29 0;
#X connect 26 2 30 0;
#X connect 27 0 23 0;
#X connect 27 0 22 0;
#X connect 28 0 5 0;
#X connect 29 0 4 0;
#X connect 30 0 10 0;
#X connect 31 0 27 0;
#X connect 33 0 37 0;
#X connect 33 1 100 0;
#X connect 34 0 35 0;
#X connect 36 0 32 0;
#X connect 36 1 32 1;
#X connect 37 0 36 0;
#X connect 38 0 21 0;
#X connect 39 0 33 0;
#X connect 41 0 45 0;
#X connect 41 1 99 0;
#X connect 42 0 43 0;
#X connect 44 0 40 0;
#X connect 44 1 40 1;
#X connect 45 0 44 0;
#X connect 47 0 51 0;
#X connect 47 1 101 0;
#X connect 48 0 49 0;
#X connect 50 0 46 0;
#X connect 50 1 46 1;
#X connect 51 0 50 0;
#X connect 52 0 65 0;
#X connect 54 0 58 0;
#X connect 54 1 98 0;
#X connect 55 0 56 0;
#X connect 57 0 53 0;
#X connect 57 1 53 1;
#X connect 58 0 57 0;
#X connect 59 0 54 0;
#X connect 60 0 66 0;
#X connect 61 0 47 0;
#X connect 62 0 41 0;
#X connect 63 0 67 0;
#X connect 63 1 67 1;
#X connect 64 0 63 0;
#X connect 66 0 64 0;
#X connect 66 1 102 0;
#X connect 68 0 71 1;
#X connect 69 0 83 0;
#X connect 70 0 71 0;
#X connect 71 0 80 0;
#X connect 72 0 74 0;
#X connect 75 0 68 1;
#X connect 80 0 85 0;
#X connect 83 0 68 0;
#X connect 85 0 84 0;
#X connect 85 0 84 1;
#X connect 86 0 96 0;
#X connect 87 0 85 1;
#X connect 88 0 89 0;
#X connect 88 1 89 1;
#X connect 90 0 91 0;
#X connect 91 0 93 0;
#X connect 91 1 94 0;
#X connect 91 2 95 0;
#X connect 92 0 88 0;
#X connect 92 0 87 0;
#X connect 93 0 70 0;
#X connect 94 0 69 0;
#X connect 95 0 75 0;
#X connect 96 0 92 0;
#X connect 97 0 86 0;
#X connect 98 0 57 0;
#X connect 99 0 44 0;
#X connect 100 0 36 0;
#X connect 101 0 50 0;
#X connect 102 0 63 0;
#X connect 104 0 108 0;
#X connect 104 1 110 0;
#X connect 105 0 106 0;
#X connect 107 0 103 0;
#X connect 107 1 103 1;
#X connect 108 0 107 0;
#X connect 109 0 104 0;
#X connect 110 0 107 0;
#X connect 112 0 116 0;
#X connect 112 1 118 0;
#X connect 113 0 114 0;
#X connect 115 0 111 0;
#X connect 115 1 111 1;
#X connect 116 0 115 0;
#X connect 117 0 112 0;
#X connect 118 0 115 0;
